<svg width="21" height="20" viewBox="0 0 21 20" fill="none" xmlns="http://www.w3.org/2000/svg">
<path d="M20.0425 10.0581C20.0425 4.53538 15.5652 0.0581055 10.0425 0.0581055C4.51975 0.0581055 0.0424805 4.53538 0.0424805 10.0581C0.0424805 15.049 3.70157 19.1854 8.47884 19.9354V12.949H5.93794V10.0581H8.47884V7.85356C8.47884 5.34901 9.96975 3.96265 12.2561 3.96265C13.3516 3.96265 14.4925 4.15811 14.4925 4.15811V6.6172H13.2334C11.9925 6.6172 11.6016 7.38992 11.6016 8.18083V10.0581H14.3743L13.9288 12.949H11.597V19.9354C16.3788 19.1854 20.0334 15.049 20.0334 10.0581H20.0425Z" fill="#242424"/>
</svg>
