<svg width="19" height="17" viewBox="0 0 19 17" fill="none" xmlns="http://www.w3.org/2000/svg">
<path d="M1.63558 16.5C1.18441 16.5 0.79898 16.342 0.479298 16.0261C0.159766 15.7101 0 15.3291 0 14.883V4.11296H1.35714V14.883C1.35714 14.9632 1.38323 15.0291 1.4354 15.0807C1.48758 15.1323 1.55431 15.1581 1.63558 15.1581H16.2857V16.5H1.63558ZM4.80225 13.3688C4.35092 13.3688 3.9655 13.2108 3.64596 12.8949C3.32643 12.5789 3.16667 12.1979 3.16667 11.7518V2.11727C3.16667 1.67114 3.32643 1.29003 3.64596 0.97393C3.9655 0.657977 4.35092 0.5 4.80225 0.5H9.30864L11.1182 2.28926H17.3644C17.8156 2.28926 18.201 2.44724 18.5207 2.76319C18.8402 3.07929 19 3.4604 19 3.90653V11.7518C19 12.1979 18.8402 12.5789 18.5207 12.8949C18.201 13.2108 17.8156 13.3688 17.3644 13.3688H4.80225ZM4.80225 12.0271H17.3644C17.4457 12.0271 17.5124 12.0012 17.5646 11.9495C17.6168 11.8979 17.6429 11.832 17.6429 11.7518V3.90653C17.6429 3.82616 17.6168 3.76018 17.5646 3.70859C17.5124 3.657 17.4457 3.6312 17.3644 3.6312H10.5631L8.75357 1.84194H4.80225C4.72097 1.84194 4.65425 1.86774 4.60207 1.91933C4.5499 1.97092 4.52381 2.0369 4.52381 2.11727V11.7518C4.52381 11.832 4.5499 11.8979 4.60207 11.9495C4.65425 12.0012 4.72097 12.0271 4.80225 12.0271Z" fill="white"/>
</svg>
