<svg width="28" height="24" viewBox="0 0 28 24" fill="none" xmlns="http://www.w3.org/2000/svg">
<path d="M14 24L12.4315 22.6136C10.0759 20.5124 8.12786 18.7068 6.58743 17.1968C5.04701 15.6867 3.82633 14.3426 2.92538 13.1648C2.02443 11.9871 1.39503 10.9128 1.03716 9.94169C0.679053 8.97085 0.5 7.98568 0.5 6.98619C0.5 5.00327 1.17997 3.34312 2.53992 2.00573C3.90011 0.668578 5.58855 0 7.60526 0C8.84584 0 10.0182 0.285269 11.1224 0.855808C12.2265 1.42635 13.1857 2.24455 14 3.31041C14.8143 2.24455 15.7735 1.42635 16.8776 0.855808C17.9818 0.285269 19.1542 0 20.3947 0C22.4114 0 24.0999 0.668578 25.4601 2.00573C26.82 3.34312 27.5 5.00327 27.5 6.98619C27.5 7.98568 27.3209 8.97085 26.9628 9.94169C26.605 10.9128 25.9756 11.9871 25.0746 13.1648C24.1737 14.3426 22.9552 15.6867 21.4193 17.1968C19.8836 18.7068 17.9334 20.5124 15.5685 22.6136L14 24ZM14 21.1681C16.2737 19.1566 18.1447 17.4324 19.6132 15.9956C21.0816 14.559 22.2421 13.3109 23.0947 12.2513C23.9474 11.1918 24.5395 10.2508 24.8711 9.42856C25.2026 8.60652 25.3684 7.79239 25.3684 6.98619C25.3684 5.58895 24.8947 4.42459 23.9474 3.49309C23 2.5616 21.8158 2.09586 20.3947 2.09586C19.2726 2.09586 18.2354 2.40884 17.2833 3.0348C16.3315 3.661 15.5777 4.53206 15.0221 5.64798H12.9779C12.413 4.52297 11.6569 3.6497 10.7096 3.02816C9.76219 2.40663 8.72742 2.09586 7.60526 2.09586C6.19321 2.09586 5.01125 2.5616 4.05938 3.49309C3.10751 4.42459 2.63158 5.58895 2.63158 6.98619C2.63158 7.79239 2.79737 8.60652 3.12895 9.42856C3.46053 10.2508 4.05263 11.1918 4.90526 12.2513C5.75789 13.3109 6.91842 14.5568 8.38684 15.9889C9.85526 17.4211 11.7263 19.1475 14 21.1681Z" fill="white"/>
</svg>
