<svg width="21" height="20" viewBox="0 0 21 20" fill="none" xmlns="http://www.w3.org/2000/svg">
<path d="M0.5 20V1.95027C0.5 1.40527 0.684211 0.943981 1.05263 0.566389C1.42105 0.188796 1.87114 0 2.40289 0H18.5971C19.1289 0 19.5789 0.188796 19.9474 0.566389C20.3158 0.943981 20.5 1.40527 20.5 1.95027V14.2323C20.5 14.7773 20.3158 15.2386 19.9474 15.6161C19.5789 15.9937 19.1289 16.1825 18.5971 16.1825H4.22474L0.5 20ZM3.55263 14.5643H18.5971C18.6782 14.5643 18.7524 14.5297 18.8197 14.4604C18.8873 14.3914 18.9211 14.3153 18.9211 14.2323V1.95027C18.9211 1.8672 18.8873 1.79114 18.8197 1.72209C18.7524 1.65287 18.6782 1.61825 18.5971 1.61825H2.40289C2.32184 1.61825 2.24763 1.65287 2.18026 1.72209C2.11272 1.79114 2.07895 1.8672 2.07895 1.95027V16.0582L3.55263 14.5643Z" fill="white"/>
</svg>
