<svg width="21" height="20" viewBox="0 0 21 20" fill="none" xmlns="http://www.w3.org/2000/svg">
<path d="M5.89968 0.0681818C4.83605 0.118182 4.10878 0.286364 3.47241 0.536364C2.81332 0.790909 2.25878 1.13636 1.70423 1.69091C1.14968 2.24545 0.808775 2.80455 0.55423 3.46364C0.308775 4.1 0.140594 4.82727 0.0951391 5.89091C0.0496845 6.95455 0.0360481 7.29546 0.0451391 10.0136C0.05423 12.7318 0.0633209 13.0682 0.113321 14.1364C0.163321 15.2 0.331503 15.9273 0.581503 16.5636C0.836048 17.2227 1.1815 17.7773 1.73605 18.3318C2.29059 18.8864 2.84968 19.2273 3.50878 19.4818C4.14514 19.7273 4.87241 19.8955 5.93605 19.9409C6.99968 19.9864 7.34514 20 10.0588 19.9909C12.7724 19.9864 13.1133 19.9727 14.1815 19.9227C15.2497 19.8727 15.9724 19.7 16.6042 19.4545C17.2633 19.1955 17.8179 18.8545 18.3724 18.3C18.927 17.7455 19.2679 17.1864 19.5224 16.5273C19.7679 15.8909 19.936 15.1636 19.9815 14.1C20.027 13.0318 20.0406 12.6909 20.036 9.97727C20.0315 7.26364 20.0179 6.92273 19.9679 5.85455C19.9179 4.78636 19.7497 4.06364 19.4997 3.42727C19.2406 2.76818 18.8997 2.21364 18.3451 1.65909C17.7906 1.10455 17.2315 0.763636 16.5724 0.509091C15.936 0.263636 15.2088 0.0954546 14.1451 0.05C13.0815 0.00454545 12.736 0 10.0179 0C7.29968 0 6.96332 0.0181818 5.89514 0.0681818M6.01332 18.1455C5.03605 18.1045 4.50878 17.9409 4.15423 17.8045C3.68605 17.6227 3.35423 17.4091 3.00423 17.0591C2.65423 16.7091 2.43605 16.3773 2.25423 15.9091C2.11787 15.5545 1.95423 15.0273 1.90878 14.0545C1.85878 13 1.84968 12.6864 1.84514 10.0136C1.84059 7.34091 1.84514 7.02727 1.89514 5.97273C1.93605 5 2.09968 4.46818 2.23605 4.11818C2.41787 3.65 2.6315 3.31818 2.9815 2.96818C3.3315 2.61818 3.66332 2.4 4.1315 2.21818C4.48605 2.08182 5.01332 1.91818 5.98605 1.87273C7.04059 1.82273 7.35878 1.81364 10.027 1.80909C12.6951 1.80455 13.0133 1.80909 14.0679 1.85909C15.0406 1.9 15.5724 2.06364 15.9224 2.2C16.3906 2.38182 16.7224 2.59545 17.0724 2.94545C17.4224 3.29545 17.6406 3.62727 17.8224 4.09546C17.9588 4.44546 18.1224 4.97727 18.1679 5.95C18.2179 7.00455 18.2315 7.32273 18.236 9.99091C18.2406 12.6591 18.2315 12.9773 18.186 14.0318C18.1451 15.0091 17.9815 15.5364 17.8451 15.8909C17.6633 16.3591 17.4497 16.6909 17.0997 17.0409C16.7497 17.3909 16.4179 17.6091 15.9497 17.7909C15.5997 17.9273 15.0679 18.0909 14.0951 18.1409C13.0406 18.1909 12.7224 18.2 10.0542 18.2045C7.38605 18.2091 7.06787 18.2 6.01332 18.1545M14.1679 4.65455C14.1679 5.31818 14.7088 5.85455 15.3679 5.85455C16.027 5.85455 16.5679 5.31364 16.5679 4.65455C16.5679 3.99091 16.027 3.45455 15.3679 3.45455C14.7042 3.45455 14.1679 3.99545 14.1724 4.65455M4.90423 10.0091C4.90878 12.8455 7.21332 15.1409 10.0497 15.1318C12.886 15.1227 15.1815 12.8227 15.177 9.98636C15.1724 7.15 12.8679 4.85455 10.0315 4.86364C7.19514 4.87273 4.89968 7.17273 4.90878 10.0091M6.70878 10.0091C6.70878 8.16818 8.19514 6.67273 10.036 6.66818C11.877 6.66818 13.3724 8.15455 13.377 9.99546C13.377 11.8364 11.8906 13.3318 10.0497 13.3364C8.20878 13.3364 6.71332 11.85 6.70878 10.0091Z" fill="#242424"/>
</svg>
