<svg width="25" height="24" viewBox="0 0 25 24" fill="none" xmlns="http://www.w3.org/2000/svg">
<path d="M0 24V2.34032C0 1.68633 0.230263 1.13278 0.69079 0.679667C1.15132 0.226556 1.71393 0 2.37862 0H22.6214C23.2861 0 23.8487 0.226556 24.3092 0.679667C24.7697 1.13278 25 1.68633 25 2.34032V17.0787C25 17.7327 24.7697 18.2863 24.3092 18.7394C23.8487 19.1925 23.2861 19.419 22.6214 19.419H4.65592L0 24ZM3.81579 17.4771H22.6214C22.7227 17.4771 22.8155 17.4356 22.8997 17.3525C22.9841 17.2697 23.0263 17.1784 23.0263 17.0787V2.34032C23.0263 2.24063 22.9841 2.14936 22.8997 2.06651C22.8155 1.98344 22.7227 1.9419 22.6214 1.9419H2.37862C2.2773 1.9419 2.18454 1.98344 2.10033 2.06651C2.0159 2.14936 1.97368 2.24063 1.97368 2.34032V19.2698L3.81579 17.4771Z" fill="#1F1F1F"/>
</svg>
