<svg width="16" height="16" viewBox="0 0 16 16" fill="none" xmlns="http://www.w3.org/2000/svg">
<path d="M15.0193 16L9.17403 10.1546C8.7087 10.5388 8.17357 10.8395 7.56864 11.0566C6.9637 11.2738 6.33791 11.3823 5.69125 11.3823C4.10059 11.3823 2.75438 10.8316 1.65263 9.7302C0.550876 8.62877 0 7.28289 0 5.69256C0 4.10239 0.550721 2.75605 1.65216 1.65354C2.75361 0.551179 4.0995 0 5.68986 0C7.28005 0 8.62641 0.550868 9.72894 1.6526C10.8313 2.75434 11.3825 4.10053 11.3825 5.69117C11.3825 6.35581 11.271 6.99059 11.0479 7.59552C10.8247 8.20044 10.527 8.72657 10.1547 9.1739L16 15.0191L15.0193 16ZM5.69125 9.98659C6.89041 9.98659 7.90608 9.57044 8.73825 8.73812C9.57057 7.90596 9.98674 6.89031 9.98674 5.69117C9.98674 4.49202 9.57057 3.47637 8.73825 2.64421C7.90608 1.8119 6.89041 1.39574 5.69125 1.39574C4.49209 1.39574 3.47642 1.8119 2.64425 2.64421C1.81193 3.47637 1.39577 4.49202 1.39577 5.69117C1.39577 6.89031 1.81193 7.90596 2.64425 8.73812C3.47642 9.57044 4.49209 9.98659 5.69125 9.98659Z" fill="#1F1F1F"/>
</svg>
