<svg width="19" height="14" viewBox="0 0 19 14" fill="none" xmlns="http://www.w3.org/2000/svg">
<path d="M18.6038 2.41629C18.3858 1.59511 17.7432 0.948377 16.9273 0.728898C15.4485 0.330078 9.5186 0.330078 9.5186 0.330078C9.5186 0.330078 3.58874 0.330078 2.10989 0.728898C1.29402 0.948411 0.65145 1.59511 0.433359 2.41629C0.0371094 3.90473 0.0371094 7.01022 0.0371094 7.01022C0.0371094 7.01022 0.0371094 10.1157 0.433359 11.6041C0.65145 12.4253 1.29402 13.0451 2.10989 13.2646C3.58874 13.6634 9.5186 13.6634 9.5186 13.6634C9.5186 13.6634 15.4485 13.6634 16.9273 13.2646C17.7432 13.0451 18.3858 12.4253 18.6038 11.6041C19.0001 10.1157 19.0001 7.01022 19.0001 7.01022C19.0001 7.01022 19.0001 3.90473 18.6038 2.41629ZM7.57919 9.82977V4.19067L12.5354 7.01029L7.57919 9.82977Z" fill="#242424"/>
</svg>
