<svg width="260" height="35" viewBox="0 0 260 35" fill="none" xmlns="http://www.w3.org/2000/svg">
<path d="M32.4761 0V32H0.476074L32.4761 0Z" fill="#242424"/>
<path d="M61.1465 34.0455C60.5859 34.0455 60.067 34 59.5897 33.9091C59.12 33.8258 58.745 33.7273 58.4647 33.6136L59.4193 30.4091C60.0177 30.5833 60.5518 30.6667 61.0215 30.6591C61.4912 30.6515 61.9041 30.5038 62.2602 30.2159C62.6238 29.9356 62.9306 29.4659 63.1806 28.8068L63.5329 27.8636L57.2033 10.0455H61.567L65.5897 23.2273H65.7715L69.8056 10.0455H74.1806L67.192 29.6136C66.8662 30.5379 66.4344 31.3295 65.8965 31.9886C65.3587 32.6553 64.6996 33.1629 63.9193 33.5114C63.1465 33.8674 62.2223 34.0455 61.1465 34.0455Z" fill="#242424"/>
<path d="M84.1607 27.8409C82.4107 27.8409 80.8994 27.4773 79.6266 26.75C78.3615 26.0152 77.388 24.9773 76.7062 23.6364C76.0244 22.2879 75.6835 20.7008 75.6835 18.875C75.6835 17.0795 76.0244 15.5038 76.7062 14.1477C77.3956 12.7841 78.3577 11.7235 79.5926 10.9659C80.8274 10.2008 82.2782 9.81818 83.9448 9.81818C85.0206 9.81818 86.0357 9.99242 86.9903 10.3409C87.9524 10.6818 88.8009 11.2121 89.5357 11.9318C90.2782 12.6515 90.8615 13.5682 91.2857 14.6818C91.71 15.7879 91.9221 17.1061 91.9221 18.6364V19.8977H77.6153V17.125H87.9789C87.9713 16.3371 87.8009 15.6364 87.4676 15.0227C87.1342 14.4015 86.6683 13.9129 86.0698 13.5568C85.4789 13.2008 84.7895 13.0227 84.0016 13.0227C83.1607 13.0227 82.4221 13.2273 81.7857 13.6364C81.1494 14.0379 80.6532 14.5682 80.2971 15.2273C79.9486 15.8788 79.7706 16.5947 79.763 17.375V19.7955C79.763 20.8106 79.9486 21.6818 80.3198 22.4091C80.691 23.1288 81.21 23.6818 81.8766 24.0682C82.5433 24.447 83.3236 24.6364 84.2176 24.6364C84.816 24.6364 85.3577 24.553 85.8426 24.3864C86.3274 24.2121 86.7479 23.9583 87.1039 23.625C87.46 23.2917 87.7289 22.8788 87.9107 22.3864L91.7516 22.8182C91.5092 23.8333 91.0471 24.7197 90.3653 25.4773C89.691 26.2273 88.8274 26.8106 87.7744 27.2273C86.7213 27.6364 85.5168 27.8409 84.1607 27.8409Z" fill="#242424"/>
<path d="M106.527 20.1591V10.0455H110.641V27.5H106.652V24.3977H106.47C106.076 25.375 105.429 26.1742 104.527 26.7955C103.633 27.4167 102.531 27.7273 101.22 27.7273C100.076 27.7273 99.0651 27.4735 98.1863 26.9659C97.3151 26.4508 96.6333 25.7045 96.1408 24.7273C95.6484 23.7424 95.4022 22.553 95.4022 21.1591V10.0455H99.5158V20.5227C99.5158 21.6288 99.8189 22.5076 100.425 23.1591C101.031 23.8106 101.826 24.1364 102.811 24.1364C103.417 24.1364 104.004 23.9886 104.573 23.6932C105.141 23.3977 105.607 22.9583 105.97 22.375C106.342 21.7841 106.527 21.0455 106.527 20.1591Z" fill="#242424"/>
<path d="M118.985 17.2727V27.5H114.871V10.0455H118.803V13.0114H119.007C119.409 12.0341 120.049 11.2576 120.928 10.6818C121.814 10.1061 122.909 9.81818 124.212 9.81818C125.416 9.81818 126.466 10.0758 127.36 10.5909C128.261 11.1061 128.958 11.8523 129.451 12.8295C129.951 13.8068 130.197 14.9924 130.189 16.3864V27.5H126.076V17.0227C126.076 15.8561 125.772 14.9432 125.166 14.2841C124.568 13.625 123.738 13.2955 122.678 13.2955C121.958 13.2955 121.318 13.4545 120.757 13.7727C120.204 14.0833 119.769 14.5341 119.451 15.125C119.14 15.7159 118.985 16.4318 118.985 17.2727Z" fill="#242424"/>
<path d="M134.371 27.5V10.0455H138.485V27.5H134.371ZM136.439 7.56818C135.788 7.56818 135.227 7.35227 134.757 6.92045C134.288 6.48106 134.053 5.95454 134.053 5.34091C134.053 4.7197 134.288 4.19318 134.757 3.76136C135.227 3.32197 135.788 3.10227 136.439 3.10227C137.098 3.10227 137.659 3.32197 138.121 3.76136C138.591 4.19318 138.826 4.7197 138.826 5.34091C138.826 5.95454 138.591 6.48106 138.121 6.92045C137.659 7.35227 137.098 7.56818 136.439 7.56818Z" fill="#242424"/>
<path d="M146.465 22.0227L146.453 17.0568H147.112L153.385 10.0455H158.192L150.476 18.6364H149.624L146.465 22.0227ZM142.715 27.5V4.22727H146.828V27.5H142.715ZM153.669 27.5L147.987 19.5568L150.76 16.6591L158.59 27.5H153.669Z" fill="#242424"/>
<path d="M167.942 27.8409C166.192 27.8409 164.681 27.4773 163.408 26.75C162.143 26.0152 161.169 24.9773 160.487 23.6364C159.806 22.2879 159.465 20.7008 159.465 18.875C159.465 17.0795 159.806 15.5038 160.487 14.1477C161.177 12.7841 162.139 11.7235 163.374 10.9659C164.609 10.2008 166.059 9.81818 167.726 9.81818C168.802 9.81818 169.817 9.99242 170.772 10.3409C171.734 10.6818 172.582 11.2121 173.317 11.9318C174.059 12.6515 174.643 13.5682 175.067 14.6818C175.491 15.7879 175.703 17.1061 175.703 18.6364V19.8977H161.397V17.125H171.76C171.753 16.3371 171.582 15.6364 171.249 15.0227C170.915 14.4015 170.45 13.9129 169.851 13.5568C169.26 13.2008 168.571 13.0227 167.783 13.0227C166.942 13.0227 166.203 13.2273 165.567 13.6364C164.931 14.0379 164.434 14.5682 164.078 15.2273C163.73 15.8788 163.552 16.5947 163.544 17.375V19.7955C163.544 20.8106 163.73 21.6818 164.101 22.4091C164.472 23.1288 164.991 23.6818 165.658 24.0682C166.325 24.447 167.105 24.6364 167.999 24.6364C168.597 24.6364 169.139 24.553 169.624 24.3864C170.109 24.2121 170.529 23.9583 170.885 23.625C171.241 23.2917 171.51 22.8788 171.692 22.3864L175.533 22.8182C175.29 23.8333 174.828 24.7197 174.147 25.4773C173.472 26.2273 172.609 26.8106 171.556 27.2273C170.503 27.6364 169.298 27.8409 167.942 27.8409Z" fill="#242424"/>
<path d="M181.24 34.0455C180.68 34.0455 180.161 34 179.683 33.9091C179.214 33.8258 178.839 33.7273 178.558 33.6136L179.513 30.4091C180.111 30.5833 180.646 30.6667 181.115 30.6591C181.585 30.6515 181.998 30.5038 182.354 30.2159C182.718 29.9356 183.024 29.4659 183.274 28.8068L183.627 27.8636L177.297 10.0455H181.661L185.683 23.2273H185.865L189.899 10.0455H194.274L187.286 29.6136C186.96 30.5379 186.528 31.3295 185.99 31.9886C185.452 32.6553 184.793 33.1629 184.013 33.5114C183.24 33.8674 182.316 34.0455 181.24 34.0455Z" fill="#242424"/>
<path d="M198.561 27.75C197.872 27.75 197.281 27.5076 196.789 27.0227C196.296 26.5379 196.054 25.947 196.061 25.25C196.054 24.5682 196.296 23.9848 196.789 23.5C197.281 23.0152 197.872 22.7727 198.561 22.7727C199.228 22.7727 199.808 23.0152 200.3 23.5C200.8 23.9848 201.054 24.5682 201.061 25.25C201.054 25.7121 200.933 26.1326 200.698 26.5114C200.47 26.8902 200.167 27.1932 199.789 27.4205C199.417 27.6402 199.008 27.75 198.561 27.75Z" fill="#242424"/>
<path d="M211.786 27.8068C210.415 27.8068 209.187 27.4545 208.104 26.75C207.021 26.0455 206.165 25.0227 205.536 23.6818C204.907 22.3409 204.593 20.7121 204.593 18.7955C204.593 16.8561 204.911 15.2197 205.547 13.8864C206.191 12.5455 207.058 11.5341 208.149 10.8523C209.24 10.1629 210.456 9.81818 211.797 9.81818C212.82 9.81818 213.661 9.99242 214.32 10.3409C214.979 10.6818 215.502 11.0947 215.888 11.5795C216.274 12.0568 216.574 12.5076 216.786 12.9318H216.956V4.22727H221.081V27.5H217.036V24.75H216.786C216.574 25.1742 216.267 25.625 215.865 26.1023C215.464 26.572 214.933 26.9735 214.274 27.3068C213.615 27.6402 212.786 27.8068 211.786 27.8068ZM212.933 24.4318C213.805 24.4318 214.547 24.197 215.161 23.7273C215.774 23.25 216.24 22.5871 216.558 21.7386C216.877 20.8902 217.036 19.9015 217.036 18.7727C217.036 17.6439 216.877 16.6629 216.558 15.8295C216.248 14.9962 215.786 14.3485 215.172 13.8864C214.566 13.4242 213.82 13.1932 212.933 13.1932C212.017 13.1932 211.252 13.4318 210.638 13.9091C210.024 14.3864 209.562 15.0455 209.252 15.8864C208.941 16.7273 208.786 17.6894 208.786 18.7727C208.786 19.8636 208.941 20.8371 209.252 21.6932C209.57 22.5417 210.036 23.2121 210.649 23.7045C211.271 24.1894 212.032 24.4318 212.933 24.4318Z" fill="#242424"/>
<path d="M233.192 27.8409C231.442 27.8409 229.931 27.4773 228.658 26.75C227.393 26.0152 226.419 24.9773 225.737 23.6364C225.056 22.2879 224.715 20.7008 224.715 18.875C224.715 17.0795 225.056 15.5038 225.737 14.1477C226.427 12.7841 227.389 11.7235 228.624 10.9659C229.859 10.2008 231.309 9.81818 232.976 9.81818C234.052 9.81818 235.067 9.99242 236.022 10.3409C236.984 10.6818 237.832 11.2121 238.567 11.9318C239.309 12.6515 239.893 13.5682 240.317 14.6818C240.741 15.7879 240.953 17.1061 240.953 18.6364V19.8977H226.647V17.125H237.01C237.003 16.3371 236.832 15.6364 236.499 15.0227C236.165 14.4015 235.7 13.9129 235.101 13.5568C234.51 13.2008 233.821 13.0227 233.033 13.0227C232.192 13.0227 231.453 13.2273 230.817 13.6364C230.181 14.0379 229.684 14.5682 229.328 15.2273C228.98 15.8788 228.802 16.5947 228.794 17.375V19.7955C228.794 20.8106 228.98 21.6818 229.351 22.4091C229.722 23.1288 230.241 23.6818 230.908 24.0682C231.575 24.447 232.355 24.6364 233.249 24.6364C233.847 24.6364 234.389 24.553 234.874 24.3864C235.359 24.2121 235.779 23.9583 236.135 23.625C236.491 23.2917 236.76 22.8788 236.942 22.3864L240.783 22.8182C240.54 23.8333 240.078 24.7197 239.397 25.4773C238.722 26.2273 237.859 26.8106 236.806 27.2273C235.753 27.6364 234.548 27.8409 233.192 27.8409Z" fill="#242424"/>
<path d="M259.524 10.0455L253.308 27.5H248.763L242.547 10.0455H246.933L250.945 23.0114H251.127L255.149 10.0455H259.524Z" fill="#242424"/>
</svg>
