<svg width="89" height="24" viewBox="0 0 89 24" fill="none" xmlns="http://www.w3.org/2000/svg">
<path d="M1.52351 17.3426C0.767282 17.3149 0.0094663 16.4839 0.00749957 15.7395C0.00454712 14.6217 0.0315008 13.5033 0.000952766 12.3864C-0.0197203 11.6305 0.296747 11.0953 0.880408 10.6532C1.4995 10.1844 2.09122 9.67961 2.69574 9.19158C3.50896 8.53508 4.32565 7.88283 5.13578 7.22258C5.72383 6.74333 6.30007 6.24968 6.88818 5.77051C7.46791 5.29818 8.05941 4.84023 8.63937 4.36818C9.22757 3.88941 9.8064 3.3992 10.3923 2.91754C10.9559 2.45413 11.5209 1.99231 12.0898 1.53534C12.5208 1.18911 12.9396 0.822528 13.3993 0.518415C13.8574 0.215367 14.3815 0.0442268 14.9906 0.00401914C16.6504 0.00455585 18.2578 0.00201338 19.8653 3.03502e-05C20.2645 -0.000461818 20.2647 0.00037065 20.2651 0.394096C20.2672 2.46339 20.2693 4.53268 20.2632 6.61767C20.2394 6.66491 20.2237 6.69645 20.208 6.72798C19.1764 8.01394 18.1448 9.29989 17.0945 10.6091C15.9795 9.29205 14.8925 8.00797 13.809 6.72814C12.7269 7.99453 11.6602 9.24292 10.5628 10.5273C9.45652 9.28047 8.35745 8.04178 7.20999 6.74855C7.20999 6.9072 7.20999 6.99062 7.20999 7.07405C7.21011 9.93314 7.20837 12.7922 7.2115 15.6513C7.21239 16.4734 6.49946 17.2665 5.63114 17.3412C4.22755 17.3404 2.87553 17.3415 1.52351 17.3426Z" fill="#86A372"/>
<path d="M25.9501 6.65606C26.2044 6.74278 26.4775 6.79558 26.7089 6.92352C27.1482 7.1664 27.3628 7.58369 27.4645 8.11228C27.4642 9.45419 27.4664 10.7457 27.4686 12.0372C27.4597 12.601 27.1044 12.9586 26.7081 13.2838C26.0053 13.8604 25.2956 14.4287 24.5874 14.9987C23.9986 15.4728 23.4048 15.9409 22.8187 16.4184C22.2318 16.8966 21.6548 17.3871 21.0677 17.8652C20.4814 18.3425 19.885 18.8073 19.2986 19.2843C18.7187 19.7561 18.1487 20.2401 17.5689 20.7121C16.9752 21.1953 16.3733 21.6686 15.7781 22.1499C15.2342 22.5897 14.717 23.0665 14.1456 23.4669C13.6938 23.7836 13.1615 23.961 12.5444 23.9944C10.7345 23.9941 8.97718 23.9971 7.21984 24C7.21569 22.3472 7.18555 20.6939 7.21795 19.0418C7.23514 18.1651 8.04795 17.4013 8.99547 17.4005C12.0962 17.3979 15.1969 17.3916 18.2976 17.4048C19.2134 17.4086 20.0946 16.7803 20.2246 15.9033C20.2271 15.8865 20.2466 15.8722 20.2798 15.8158C20.3094 15.6298 20.3243 15.4848 20.3243 15.3398C20.3257 12.5783 20.3253 9.81671 20.3254 7.05517C20.3254 6.65562 20.3257 6.65519 20.714 6.65522C22.4594 6.65535 24.2047 6.65575 25.9501 6.65606Z" fill="#86A372"/>
<path d="M36.0728 1.79465C35.435 1.89384 34.6567 2.2031 34.1184 2.5707C33.4747 3.01999 32.755 3.96526 32.5092 4.71213C32.3044 5.3248 32.2693 5.76826 32.2693 7.76965C32.2693 10.2495 32.3395 10.693 32.8662 11.5916C33.4279 12.5368 34.37 13.272 35.4759 13.6221C35.8563 13.7447 35.9909 13.7447 40.3444 13.7797C44.8209 13.8088 44.8209 13.8088 45.0608 13.9372C45.4177 14.1239 45.7747 14.5557 45.88 14.9292C45.9502 15.1742 45.9678 15.4601 45.9502 16.2187C45.9326 17.0881 45.9151 17.2165 45.8039 17.4324C45.5991 17.8116 45.4002 18.0158 45.0725 18.1792L44.7682 18.3309H32.6789V22.2404H39.455C46.7402 22.2345 46.7168 22.2345 47.4716 21.9311C48.6536 21.4585 49.6074 20.4549 50.0404 19.2354L50.2043 18.7686L50.2218 16.2303C50.2452 13.3304 50.2335 13.2662 49.783 12.3209C49.5489 11.8425 49.4436 11.6966 48.952 11.2123C48.3142 10.5821 47.7642 10.2495 46.9742 10.0336C46.5295 9.91108 46.3949 9.90525 42.0706 9.87607L37.6235 9.84106L37.3192 9.64851C36.9856 9.43262 36.6872 9.03584 36.617 8.70908C36.5409 8.36482 36.5643 6.94692 36.6463 6.70769C36.7633 6.3751 37.0383 6.0425 37.3426 5.86162L37.6235 5.69824L49.7361 5.63989L49.7537 3.69685L49.7654 1.75964L42.9952 1.76548C39.2677 1.77131 36.1547 1.78298 36.0728 1.79465Z" fill="black"/>
<path d="M52.0475 22.2404H68.2563V18.3309H56.3776V13.838H68.2563V9.92859H56.3776V5.66907H68.2563V1.75964H52.0475V22.2404Z" fill="black"/>
<path d="M70.2458 22.2462L77.8411 22.2287C85.4305 22.2112 85.4305 22.2112 85.8226 22.0828C86.238 21.9486 86.8349 21.6685 87.1275 21.4643C87.4142 21.2601 88.0344 20.6533 88.2158 20.3965C88.4733 20.0231 88.7717 19.3929 88.8946 18.9728C88.9941 18.6168 88.9999 18.2259 88.9999 12.0292C88.9999 4.96304 89.0117 5.23728 88.6957 4.47873C88.485 3.97109 88.1924 3.53347 87.7828 3.11335C87.2211 2.53569 86.6242 2.17392 85.8226 1.91718C85.4305 1.78881 85.4305 1.78882 77.8411 1.77131L70.2458 1.75381V22.2462ZM84.0144 5.74492C84.2778 5.85578 84.623 6.26423 84.6815 6.5268C84.74 6.81855 84.74 17.1814 84.6815 17.4732C84.623 17.7358 84.2778 18.1442 84.0144 18.2551C83.8623 18.3134 82.9436 18.3309 79.1694 18.3309H74.5174V5.66907H79.1694C82.9436 5.66907 83.8623 5.68657 84.0144 5.74492Z" fill="black"/>
</svg>
